<svg width="35" height="26" viewBox="0 0 35 26" fill="none" xmlns="http://www.w3.org/2000/svg">
<g clip-path="url(#clip0_333_12)">
<path d="M33 0.5H2C1.17157 0.5 0.5 1.17157 0.5 2V24C0.5 24.8284 1.17157 25.5 2 25.5H33C33.8284 25.5 34.5 24.8284 34.5 24V2C34.5 1.17157 33.8284 0.5 33 0.5Z" stroke="black" stroke-opacity="0.26"/>
<path d="M15.8893 13.2919V13.4604C15.8893 13.7305 15.8527 13.9731 15.7794 14.1879C15.7062 14.4027 15.6028 14.5858 15.4694 14.7372C15.3359 14.887 15.1764 15.0017 14.9909 15.0815C14.8069 15.1612 14.6027 15.2011 14.3781 15.2011C14.1551 15.2011 13.9508 15.1612 13.7653 15.0815C13.5814 15.0017 13.4219 14.887 13.2868 14.7372C13.1517 14.5858 13.0467 14.4027 12.9718 14.1879C12.8986 13.9731 12.862 13.7305 12.862 13.4604V13.2919C12.862 13.0201 12.8986 12.7776 12.9718 12.5644C13.0451 12.3495 13.1484 12.1664 13.2819 12.015C13.417 11.8637 13.5765 11.7481 13.7604 11.6684C13.9459 11.5886 14.1502 11.5487 14.3732 11.5487C14.5978 11.5487 14.8021 11.5886 14.986 11.6684C15.1715 11.7481 15.331 11.8637 15.4645 12.015C15.5996 12.1664 15.7038 12.3495 15.777 12.5644C15.8519 12.7776 15.8893 13.0201 15.8893 13.2919ZM15.1496 13.4604V13.287C15.1496 13.0982 15.1325 12.9322 15.0983 12.789C15.0641 12.6457 15.0137 12.5253 14.9469 12.4276C14.8802 12.33 14.7988 12.2567 14.7028 12.2079C14.6068 12.1575 14.4969 12.1322 14.3732 12.1322C14.2495 12.1322 14.1396 12.1575 14.0436 12.2079C13.9492 12.2567 13.8686 12.33 13.8019 12.4276C13.7368 12.5253 13.6872 12.6457 13.653 12.789C13.6188 12.9322 13.6017 13.0982 13.6017 13.287V13.4604C13.6017 13.6475 13.6188 13.8135 13.653 13.9584C13.6872 14.1016 13.7376 14.2229 13.8043 14.3222C13.8711 14.4198 13.9525 14.4939 14.0485 14.5443C14.1445 14.5948 14.2544 14.62 14.3781 14.62C14.5018 14.62 14.6116 14.5948 14.7077 14.5443C14.8037 14.4939 14.8843 14.4198 14.9494 14.3222C15.0145 14.2229 15.0641 14.1016 15.0983 13.9584C15.1325 13.8135 15.1496 13.6475 15.1496 13.4604ZM19.3519 14.581V15.1523H17.4598V14.581H19.3519ZM17.6991 11.5976V15.1523H16.9666V11.5976H17.6991ZM19.1053 13.0453V13.602H17.4598V13.0453H19.1053ZM19.3495 11.5976V12.1713H17.4598V11.5976H19.3495ZM22.7144 14.581V15.1523H20.8223V14.581H22.7144ZM21.0616 11.5976V15.1523H20.3291V11.5976H21.0616ZM22.4678 13.0453V13.602H20.8223V13.0453H22.4678ZM22.712 11.5976V12.1713H20.8223V11.5976H22.712Z" fill="#021752"/>
<path d="M21.8153 21.4612C21.9139 21.6578 21.8348 21.8979 21.6341 21.9879C19.762 22.8274 17.6583 23.0172 15.6599 22.52C13.6614 22.0228 11.8919 20.8694 10.6314 19.2505C10.4963 19.077 10.5389 18.8278 10.7181 18.7004V18.7004C10.8973 18.5729 11.1452 18.6155 11.281 18.7885C12.4308 20.2527 14.0382 21.2959 15.8521 21.7472C17.6661 22.1985 19.5749 22.03 21.2768 21.2753C21.4778 21.1862 21.7167 21.2646 21.8153 21.4612V21.4612Z" fill="#021752"/>
<path d="M22.335 6.03879C22.4466 5.8493 22.6912 5.78544 22.8757 5.90513C24.5968 7.02195 25.898 8.68578 26.565 10.6342C27.232 12.5825 27.2236 14.6947 26.548 16.632C26.4756 16.8397 26.2432 16.9391 26.0389 16.8578V16.8578C25.8346 16.7765 25.7359 16.5452 25.8074 16.3372C26.4132 14.5768 26.417 12.6606 25.8116 10.8921C25.2062 9.1236 24.0287 7.6118 22.4711 6.59201C22.2872 6.47155 22.2234 6.22827 22.335 6.03879V6.03879Z" fill="#021752"/>
<path d="M9.09829 13.275C8.87855 13.2666 8.70628 13.0816 8.72414 12.8624C8.8908 10.8174 9.73826 8.88273 11.137 7.37125C12.5358 5.85977 14.3992 4.86522 16.4251 4.5409C16.6423 4.50614 16.8401 4.66358 16.8654 4.88201V4.88201C16.8907 5.10045 16.7339 5.29709 16.5169 5.33274C14.6799 5.63459 12.9911 6.54021 11.7215 7.91213C10.4519 9.28406 9.67958 11.0378 9.52072 12.8927C9.50195 13.1118 9.31803 13.2833 9.09829 13.275V13.275Z" fill="#021752"/>
<circle cx="10.0435" cy="17.9857" r="2.0435" fill="#021752"/>
<circle cx="17.8769" cy="5.0435" r="2.0435" fill="#021752"/>
<circle cx="25.0292" cy="17.6451" r="2.0435" fill="#021752"/>
</g>
<defs>
<clipPath id="clip0_333_12">
<rect width="35" height="26" fill="white"/>
</clipPath>
</defs>
</svg>
