<svg width="35" height="26" viewBox="0 0 35 26" fill="none" xmlns="http://www.w3.org/2000/svg">
    <path
        d="M33 0.5H2C1.17157 0.5 0.5 1.17157 0.5 2V24C0.5 24.8284 1.17157 25.5 2 25.5H33C33.8284 25.5 34.5 24.8284 34.5 24V2C34.5 1.17157 33.8284 0.5 33 0.5Z"
        stroke="black" stroke-opacity="0.26" />
    <path
        d="M14.1074 13.4648V14.0039C14.1074 14.6445 14.0273 15.2188 13.8672 15.7266C13.707 16.2344 13.4766 16.666 13.1758 17.0215C12.875 17.377 12.5137 17.6484 12.0918 17.8359C11.6738 18.0234 11.2051 18.1172 10.6855 18.1172C10.1816 18.1172 9.71875 18.0234 9.29688 17.8359C8.87891 17.6484 8.51562 17.377 8.20703 17.0215C7.90234 16.666 7.66602 16.2344 7.49805 15.7266C7.33008 15.2188 7.24609 14.6445 7.24609 14.0039V13.4648C7.24609 12.8242 7.32812 12.252 7.49219 11.748C7.66016 11.2402 7.89648 10.8086 8.20117 10.4531C8.50586 10.0938 8.86719 9.82031 9.28516 9.63281C9.70703 9.44531 10.1699 9.35156 10.6738 9.35156C11.1934 9.35156 11.6621 9.44531 12.0801 9.63281C12.502 9.82031 12.8633 10.0938 13.1641 10.4531C13.4688 10.8086 13.7012 11.2402 13.8613 11.748C14.0254 12.252 14.1074 12.8242 14.1074 13.4648ZM12.9883 14.0039V13.4531C12.9883 12.9453 12.9355 12.4961 12.8301 12.1055C12.7285 11.7148 12.5781 11.3867 12.3789 11.1211C12.1797 10.8555 11.9355 10.6543 11.6465 10.5176C11.3613 10.3809 11.0371 10.3125 10.6738 10.3125C10.3223 10.3125 10.0039 10.3809 9.71875 10.5176C9.4375 10.6543 9.19531 10.8555 8.99219 11.1211C8.79297 11.3867 8.63867 11.7148 8.5293 12.1055C8.41992 12.4961 8.36523 12.9453 8.36523 13.4531V14.0039C8.36523 14.5156 8.41992 14.9688 8.5293 15.3633C8.63867 15.7539 8.79492 16.084 8.99805 16.3535C9.20508 16.6191 9.44922 16.8203 9.73047 16.957C10.0156 17.0938 10.334 17.1621 10.6855 17.1621C11.0527 17.1621 11.3789 17.0938 11.6641 16.957C11.9492 16.8203 12.1895 16.6191 12.3848 16.3535C12.584 16.084 12.7344 15.7539 12.8359 15.3633C12.9375 14.9688 12.9883 14.5156 12.9883 14.0039ZM21.2207 17.0801V18H16.7031V17.0801H21.2207ZM16.9316 9.46875V18H15.8008V9.46875H16.9316ZM20.623 13.1367V14.0566H16.7031V13.1367H20.623ZM21.1621 9.46875V10.3945H16.7031V9.46875H21.1621ZM28.041 17.0801V18H23.5234V17.0801H28.041ZM23.752 9.46875V18H22.6211V9.46875H23.752ZM27.4434 13.1367V14.0566H23.5234V13.1367H27.4434ZM27.9824 9.46875V10.3945H23.5234V9.46875H27.9824Z"
        fill="black" />
</svg>
